<svg width="23.275" height="70.602" viewBox="0 0 23.275 70.602" version="1.2" xmlns="http://www.w3.org/2000/svg"><path class="Accidental" d="M19.62 17.25c-.185-.202-.495-.295-.883-.295l-.201.093h-.093L5.933 20.52V3.158H3.158v49.11c0 1.085.899 1.287 1.783 1.287l12.51-3.473v17.362h2.666v-49.11c0-.387-.186-.883-.496-1.085M5.933 45.03V28.752L17.45 25.48v16.37L5.933 45.029" style="font-variation-settings:normal;opacity:1;vector-effect:none;fill:#000;fill-opacity:1;stroke:#fff;stroke-width:6.31559;stroke-linecap:butt;stroke-linejoin:miter;stroke-miterlimit:4;stroke-dasharray:none;stroke-dashoffset:0;stroke-opacity:1;-inkscape-stroke:none;stop-color:#000;stop-opacity:1"/><path class="Accidental" d="M19.62 17.25c-.185-.202-.495-.295-.883-.295l-.201.093h-.093L5.933 20.52V3.158H3.158v49.11c0 1.085.899 1.287 1.783 1.287l12.51-3.473v17.362h2.666v-49.11c0-.387-.186-.883-.496-1.085M5.933 45.03V28.752L17.45 25.48v16.37z" style="stroke-width:.992126"/></svg>
