<svg width="33.595" height="33.596" viewBox="0 0 33.595 33.596" version="1.2" xmlns="http://www.w3.org/2000/svg"><path class="Accidental" d="m11.683 23.788 4.96-4.758h.31l4.851 4.758v5.255c0 .79.605 1.395 1.395 1.395h5.86c.79 0 1.379-.605 1.379-1.395v-5.844c0-.806-.59-1.302-1.38-1.302h-5.27l-4.96-4.96v-.186l4.96-4.96h5.27c.79 0 1.38-.604 1.38-1.395V4.537c0-.79-.59-1.38-1.38-1.38H23.2c-.79 0-1.395.59-1.395 1.38v5.27l-4.851 4.96h-.31l-4.96-4.96v-5.27c0-.79-.496-1.38-1.287-1.38H4.553c-.806 0-1.395.59-1.395 1.38v5.86c0 .79.589 1.394 1.395 1.394h5.254l4.852 4.852v.294l-4.852 4.96H4.553c-.806 0-1.395.496-1.395 1.302v5.844c0 .79.589 1.395 1.395 1.395h5.843c.79 0 1.287-.605 1.287-1.395v-5.255" style="font-variation-settings:normal;opacity:1;vector-effect:none;fill:#000;fill-opacity:1;stroke:#fff;stroke-width:6.31559;stroke-linecap:butt;stroke-linejoin:miter;stroke-miterlimit:4;stroke-dasharray:none;stroke-dashoffset:0;stroke-opacity:1;-inkscape-stroke:none;stop-color:#000;stop-opacity:1"/><path class="Accidental" d="m11.683 23.788 4.96-4.758h.31l4.851 4.758v5.255c0 .79.605 1.395 1.395 1.395h5.86c.79 0 1.379-.605 1.379-1.395v-5.844c0-.806-.59-1.302-1.38-1.302h-5.27l-4.96-4.96v-.186l4.96-4.96h5.27c.79 0 1.38-.604 1.38-1.395V4.537c0-.79-.59-1.38-1.38-1.38H23.2c-.79 0-1.395.59-1.395 1.38v5.27l-4.851 4.96h-.31l-4.96-4.96v-5.27c0-.79-.496-1.38-1.287-1.38H4.553c-.806 0-1.395.59-1.395 1.38v5.86c0 .79.589 1.394 1.395 1.394h5.254l4.852 4.852v.294l-4.852 4.96H4.553c-.806 0-1.395.496-1.395 1.302v5.844c0 .79.589 1.395 1.395 1.395h5.843c.79 0 1.287-.605 1.287-1.395z" style="stroke-width:.992"/></svg>
