<svg width="43.128" height="68.703" viewBox="0 0 43.128 68.703" version="1.2" xmlns="http://www.w3.org/2000/svg"><path class="Accidental" d="M31.724 32.716c-4.96 0-7.827 2.976-8.323 3.565l.387-31.744c0-.79-.589-1.38-1.38-1.38h-1.193c-.79 0-1.395.59-1.395 1.38l.295 29.869c-1.287-.992-2.868-1.69-5.053-1.69-4.96 0-7.843 3.07-8.34 3.674l.404-31.853c0-.79-.59-1.38-1.395-1.38H4.553c-.806 0-1.395.59-1.395 1.38l.496 59.629c0 .79.589 1.38 1.395 1.38.186 0 .589-.187.79-.295 5.75-2.868 10.804-7.037 14.384-12.4l.093 11.315c0 .79.605 1.38 1.395 1.38.202 0 .59-.187.79-.295 8.541-4.263 17.47-12.4 17.47-22.615 0-5.161-2.388-9.92-8.247-9.92M6.428 60.694l.295-19.344c.201-.9 1.69-3.767 5.657-3.767 3.58 0 3.875 3.364 3.875 5.456 0 8.82-3.27 12.493-9.827 17.655m16.663 0 .31-19.344c.186-.9 1.674-3.767 5.657-3.767 3.565 0 3.86 3.364 3.86 5.456 0 8.82-3.27 12.493-9.827 17.655" style="font-variation-settings:normal;opacity:1;vector-effect:none;fill:#000;fill-opacity:1;stroke:#fff;stroke-width:6.31559;stroke-linecap:butt;stroke-linejoin:miter;stroke-miterlimit:4;stroke-dasharray:none;stroke-dashoffset:0;stroke-opacity:1;-inkscape-stroke:none;stop-color:#000;stop-opacity:1"/><path class="Accidental" d="M31.724 32.716c-4.96 0-7.827 2.976-8.323 3.565l.387-31.744c0-.79-.589-1.38-1.38-1.38h-1.193c-.79 0-1.395.59-1.395 1.38l.295 29.869c-1.287-.992-2.868-1.69-5.053-1.69-4.96 0-7.843 3.07-8.34 3.674l.404-31.853c0-.79-.59-1.38-1.395-1.38H4.553c-.806 0-1.395.59-1.395 1.38l.496 59.629c0 .79.589 1.38 1.395 1.38.186 0 .589-.187.79-.295 5.75-2.868 10.804-7.037 14.384-12.4l.093 11.315c0 .79.605 1.38 1.395 1.38.202 0 .59-.187.79-.295 8.541-4.263 17.47-12.4 17.47-22.615 0-5.161-2.388-9.92-8.247-9.92M6.428 60.694l.295-19.344c.201-.9 1.69-3.767 5.657-3.767 3.58 0 3.875 3.364 3.875 5.456 0 8.82-3.27 12.493-9.827 17.655m16.663 0 .31-19.344c.186-.9 1.674-3.767 5.657-3.767 3.565 0 3.86 3.364 3.86 5.456 0 8.82-3.27 12.493-9.827 17.655" style="stroke-width:.992"/></svg>
