<svg width="31.163" height="75.249" viewBox="0 0 31.163 75.249" version="1.2" xmlns="http://www.w3.org/2000/svg"><path class="KeySig" d="M26.876 26.83c.62-.097 1.13-.824 1.13-1.453v-6.088c0-1.033-.717-1.453-1.64-1.453l-3.356.726V3.158h-2.847v16.018l-9.067 1.873V6.47H8.248v15.194l-3.977.823c-.604.113-1.113.824-1.113 1.453v5.991c0 1.13.811 1.453 1.734 1.453l3.356-.726v17.051l-3.977.824c-.604.097-1.113.823-1.113 1.453v5.99c0 1.131.811 1.438 1.734 1.438l3.356-.71V72.09h2.848V56.073l9.067-1.857v14.58h2.847V53.603l3.866-.726c.62-.113 1.13-.824 1.13-1.454v-6.087c0-1.034-.717-1.454-1.64-1.454l-3.356.727V27.556l3.866-.726m-15.78 3.197 9.067-1.857v17.052l-9.067 1.97V30.027" style="stroke:#fff;stroke-width:6.31559;stroke-dasharray:none;stroke-opacity:1"/><path class="KeySig" d="M26.876 26.83c.62-.097 1.13-.824 1.13-1.453v-6.088c0-1.033-.717-1.453-1.64-1.453l-3.356.726V3.158h-2.847v16.018l-9.067 1.873V6.47H8.248v15.194l-3.977.823c-.604.113-1.113.824-1.113 1.453v5.991c0 1.13.811 1.453 1.734 1.453l3.356-.726v17.051l-3.977.824c-.604.097-1.113.823-1.113 1.453v5.99c0 1.131.811 1.438 1.734 1.438l3.356-.71V72.09h2.848V56.073l9.067-1.857v14.58h2.847V53.603l3.866-.726c.62-.113 1.13-.824 1.13-1.454v-6.087c0-1.034-.717-1.454-1.64-1.454l-3.356.727V27.556zm-15.78 3.197 9.067-1.857v17.052l-9.067 1.97z" style="stroke-width:1.13386;stroke-dasharray:none"/></svg>
