<svg width="26.979" height="71.309" viewBox="0 0 26.979 71.309" version="1.2" xmlns="http://www.w3.org/2000/svg"><path class="KeySig" d="M15.374 33.95c-5.09 0-8.049 3.198-8.558 3.828L7.23 4.595c0-.824-.605-1.437-1.432-1.437H4.59c-.827 0-1.431.613-1.431 1.437l.509 62.119c0 .823.604 1.437 1.431 1.437.191 0 .605-.097.812-.194C14.659 63.501 23.82 55.04 23.82 44.382c0-5.361-2.434-10.431-8.447-10.431m-8.86 29.146.302-20.152c.207-.937 1.734-3.924 5.807-3.924 3.674 0 3.976 3.504 3.976 5.684 0 9.188-3.356 13.015-10.085 18.392" style="font-variation-settings:normal;opacity:1;vector-effect:none;fill:#000;fill-opacity:1;stroke:#fff;stroke-width:6.31559;stroke-linecap:butt;stroke-linejoin:miter;stroke-miterlimit:4;stroke-dasharray:none;stroke-dashoffset:0;stroke-opacity:1;-inkscape-stroke:none;stop-color:#000;stop-opacity:1"/><path class="KeySig" d="M15.374 33.95c-5.09 0-8.049 3.198-8.558 3.828L7.23 4.595c0-.824-.605-1.437-1.432-1.437H4.59c-.827 0-1.431.613-1.431 1.437l.509 62.119c0 .823.604 1.437 1.431 1.437.191 0 .605-.097.812-.194C14.659 63.501 23.82 55.04 23.82 44.382c0-5.361-2.434-10.431-8.447-10.431m-8.86 29.146.302-20.152c.207-.937 1.734-3.924 5.807-3.924 3.674 0 3.976 3.504 3.976 5.684 0 9.188-3.356 13.015-10.085 18.392" style="stroke-width:1.02572"/></svg>
