<svg width="113.792" height="214.335" viewBox="0 0 113.792 214.335" version="1.2" xmlns="http://www.w3.org/2000/svg"><path d="M53.794-210.585q0-2.533.467-4.333.533-1.867 1.733-3.533 1.267-1.667 3.4-3.467 2.6-2.2 4-3.667 1.467-1.466 2.067-2.866t.6-3.4q0-3.2-2.067-4.934-2.066-1.733-6-1.733-3.266 0-5.8.867-2.533.8-4.866 1.933l-2.067-4.667q2.667-1.4 5.867-2.333 3.266-.933 7.266-.933 6.334 0 9.8 3.133t3.467 8.533q0 3-1 5.134-.933 2.066-2.733 3.866-1.734 1.734-4.134 3.734-2.2 1.866-3.4 3.266-1.133 1.4-1.533 2.8-.4 1.334-.4 3.267v1.133h-4.667zm-1.533 11.6q0-2.466 1.133-3.466 1.2-1 3-1 1.667 0 2.867 1t1.2 3.466q0 2.4-1.2 3.467t-2.867 1.067q-1.8 0-3-1.067-1.133-1.067-1.133-3.467" style="font-size:66.6667px;font-family:Sans;-inkscape-font-specification:&quot;Sans, Normal&quot;;text-align:center;white-space:pre;stroke-width:6.31559;paint-order:markers stroke fill" transform="translate(-124.198 779.072)scale(3.09768)" aria-label="?"/><path style="stroke:#000;stroke-width:3.22452;stroke-dasharray:none;paint-order:markers stroke fill" d="M0 .015h113.792M0 25.89h113.792M0 51.765h113.792M0 77.64h113.792M0 103.516h113.792M0 25.89h113.792M0 51.765h113.792M0 77.64h113.792M0 103.516h113.792" transform="translate(0 47.143)"/><path style="fill:none;stroke:none;stroke-width:6.31559;-inkscape-stroke:none;paint-order:markers stroke fill" d="M0 0h113.792v214.335H0z"/><path style="stroke:#000;stroke-width:3.22452;stroke-dasharray:none;paint-order:markers stroke fill" d="M0 .015h113.792M0 25.89h113.792M0 51.765h113.792M0 77.64h113.792M0 103.516h113.792M0 25.89h113.792M0 51.765h113.792M0 77.64h113.792M0 103.516h113.792" transform="translate(0 47.143)"/><path style="fill:none;stroke:none;stroke-width:6.31559;-inkscape-stroke:none;paint-order:markers stroke fill" d="M0 0h113.792v214.335H0z"/></svg>
