<svg width="118.57" height="214.34" viewBox="0 0 118.57 214.34" version="1.2" xmlns="http://www.w3.org/2000/svg"><path class="Clef" d="M747.306-86.215c0 6.556 4.96 15.19 18.352 15.19 4.665 0 8.742-1.194 12.307-3.38 5.363-3.766 6.742-10.322 6.742-16.569 0-3.86-.589-8.323-1.58-13.98-.295-1.985-.9-4.96-1.489-8.836 9.719-3.177 16.957-13.299 16.957-23.513 0-14.973-10.617-25.095-25.094-25.095-.992-5.952-1.984-11.81-2.775-17.36 10.416-11.02 17.655-23.42 17.655-39.184 0-9.036-2.775-16.368-4.371-19.948-2.372-5.053-5.255-8.525-7.037-8.525-.698 0-3.767 1.193-7.037 5.053-6.355 7.548-8.138 20.243-8.138 28.566 0 5.363.496 10.23 2.186 21.344-.109.093-5.27 5.347-7.347 7.037-9.037 8.339-21.53 20.429-21.53 40.284 0 18.538 16.167 33.124 34.627 33.124a45.3 45.3 0 0 0 7.828-.698c1.89 9.533 3.084 16.477 3.084 21.731 0 10.323-5.363 15.78-15.376 15.78-2.387 0-4.464-.497-4.665-.497-.093-.108-.295-.201-.295-.294 0-.202.202-.31.496-.31 4.666-.79 9.316-4.759 9.316-11.098 0-5.363-4.061-11.02-11.501-11.02-6.944 0-11.315 5.657-11.315 12.198m20.739-132.432c.899-3.968 5.456-14.384 10.617-14.384 1.488 0 3.86 4.758 3.86 11.702 0 10.323-7.626 18.058-14.477 24.8-.59-3.968-1.085-7.827-1.085-11.997 0-3.673.294-7.052 1.085-10.121m8.726 101.974c-1.984.403-3.86.605-5.75.605-14.183 0-26.288-9.92-26.288-24.909 0-12.09 8.525-22.909 17.267-30.457 1.674-1.488 3.27-2.868 4.758-4.356.884 5.348 1.581 10.013 2.279 14.09-9.037 2.681-15.175 12.198-15.175 21.53 0 6.943 5.456 16.46 13.392 16.46.79 0 1.69-.403 1.69-1.286 0-.9-.992-1.395-2.186-2.186-3.875-2.387-6.06-4.96-6.06-9.827 0-6.045 4.572-10.912 10.323-12.291zm14.09-18.352c0 7.053-2.883 14.291-9.92 17.174-2.077-11.904-4.759-27.683-5.456-32.054 8.928 0 15.376 6.06 15.376 14.88" style="stroke-width:.992" transform="translate(-707.565 261.75)"/><path style="stroke:#000;stroke-width:3.29154;stroke-dasharray:none;paint-order:markers stroke fill" d="M707.585-214.17h118.57m-118.57 25.876h118.57m-118.57 25.875h118.57m-118.57 25.875h118.57m-118.57 25.875h118.57m-118.57-77.625h118.57m-118.57 25.875h118.57m-118.57 25.875h118.57m-118.57 25.875h118.57" transform="translate(-707.565 261.75)"/></svg>
