<svg width="118.571" height="214.335" viewBox="0 0 118.571 214.335" version="1.2" xmlns="http://www.w3.org/2000/svg"><path class="Clef" d="M468.333 364.681c0-14.88-10.617-25.001-25.094-25.001-.992-5.952-1.891-11.904-2.775-17.36 10.416-11.02 17.748-23.514 17.748-39.184 0-9.13-2.775-16.368-4.464-19.948-2.372-5.054-5.255-8.635-6.944-8.635-.682 0-3.86 1.303-7.037 5.163-6.448 7.548-8.23 20.134-8.23 28.473 0 5.363.495 10.214 2.185 21.436-.109 0-5.27 5.255-7.347 7.037-9.036 8.34-21.53 20.43-21.53 40.176 0 18.647 16.167 33.232 34.627 33.232 2.868 0 5.55-.294 7.936-.697 1.783 9.532 2.976 16.476 2.976 21.73 0 10.324-5.363 15.78-15.283 15.78-2.48 0-4.557-.496-4.665-.605-.186 0-.388-.093-.388-.186 0-.201.202-.31.496-.403 4.666-.697 9.316-4.665 9.316-11.005 0-5.363-4.061-11.02-11.501-11.02-6.851 0-11.315 5.657-11.315 12.198 0 6.557 4.96 15.19 18.352 15.19 12.803 0 19.05-7.254 19.05-19.948 0-3.86-.59-8.324-1.582-13.981-.294-1.984-.79-5.069-1.488-8.835 9.719-3.27 16.957-13.299 16.957-23.607m-30.55-81.25c.992-3.969 5.456-14.385 10.617-14.385 1.488 0 3.968 4.759 3.968 11.703 0 10.214-7.734 17.964-14.585 24.8-.59-3.968-1.085-7.936-1.085-11.997 0-3.767.387-7.053 1.085-10.122m2.976 102.58c-14.183 0-26.288-9.92-26.288-24.91 0-12.09 8.633-22.908 17.267-30.55 1.674-1.395 3.27-2.883 4.758-4.262.884 5.347 1.69 9.92 2.279 14.09-9.037 2.572-15.175 12.198-15.175 21.42 0 7.053 5.456 16.57 13.392 16.57.79 0 1.69-.403 1.69-1.395 0-.79-.9-1.38-2.186-2.17-3.875-2.294-6.06-4.96-6.06-9.734 0-6.045 4.572-10.912 10.323-12.292l5.75 32.535a22.8 22.8 0 0 1-5.75.697m9.92-1.89c-2.077-11.796-4.759-27.575-5.456-31.946 10.013 0 14.29 6.944 15.174 11.718.109.79.295 1.875.295 3.069 0 7.145-2.976 14.384-10.013 17.158m-3.875 51.987c0-3.673-3.364-5.254-6.634-5.254-4.17 0-8.246 2.573-8.246 7.037 0 1.891.697 3.286 2.185 4.665-2.573.992-5.254 2.976-5.254 6.06 0 3.271 2.976 5.457 7.347 5.457 5.347 0 9.114-2.976 9.114-7.254 0-2.279-.992-4.154-2.775-5.456 2.883-1.287 4.263-2.868 4.263-5.255m-6.138 3.968c-1.488-.79-1.891-.992-2.186-1.193l-.108-.093c-1.581-.9-2.077-1.597-2.077-2.775 0-1.798 1.395-3.084 3.379-3.084s3.069 1.193 3.069 3.27c0 1.597-.59 2.682-2.077 3.875m-3.782 11.904c-2.17 0-3.658-1.38-3.658-3.472 0-1.875.883-3.565 2.573-4.557.403.202.496.295.79.388 1.194.604 1.194.604 1.395.806 1.984 1.085 2.682 2.077 2.682 3.472 0 1.875-1.597 3.363-3.782 3.363" style="stroke-width:.992" transform="translate(-377.304 -240.218)"/><path style="stroke:#000;stroke-width:3.29154;stroke-dasharray:none;paint-order:markers stroke fill" d="M377.304 287.359h118.571m-118.571 25.875h118.571M377.304 339.11h118.571m-118.571 25.874h118.571M377.304 390.86h118.571m-118.571-77.626h118.571M377.304 339.11h118.571m-118.571 25.874h118.571M377.304 390.86h118.571" transform="translate(-377.304 -240.218)"/></svg>
