<svg width="113.792" height="214.335" viewBox="0 0 113.792 214.335" version="1.2" xmlns="http://www.w3.org/2000/svg"><path class="Clef" d="M90.386 78.271c0-12.307-6.54-21.932-19.545-21.932-2.279 0-3.968.201-7.828 2.573-.201-.388-2.185-4.356-5.456-6.634 3.271-2.294 5.255-6.262 5.456-6.65 3.767 2.279 5.053 2.573 9.316 2.573 12.105 0 18.057-11.206 18.057-21.917 0-13.888-10.214-21.73-22.227-21.73-7.44 0-18.057 3.068-18.057 12.198 0 4.867 3.379 8.044 8.246 8.044 4.355 0 7.44-3.177 7.44-7.548 0-5.456-3.58-7.239-8.34-7.239 2.28-1.58 5.364-2.48 8.433-2.48 10.416 0 12.105 8.34 12.105 17.267 0 7.642-.201 18.74-8.928 18.74S58.55 34.112 58.348 33.12c0-.093 0-1.38-1.395-1.38-1.38 0-1.488 1.287-1.488 1.38-.884 5.456-3.565 14.988-9.13 17.267V7.127c0-.683-.496-1.287-1.193-1.287-.682 0-1.287.604-1.287 1.286v90.288c0 .697.605 1.286 1.287 1.286.697 0 1.193-.589 1.193-1.286v-43.26c5.86 2.386 8.045 11.81 9.13 17.36 0 .108.108 1.286 1.488 1.286 1.395 0 1.395-1.178 1.395-1.287.201-1.085 1.984-10.509 10.71-10.509s8.928 11.114 8.928 18.755c0 8.928-1.69 17.252-12.105 17.252-3.069 0-6.154-.884-8.432-2.48.108 0 .496.108 1.1.108 4.356 0 7.239-3.084 7.239-7.347 0-4.37-3.085-7.533-7.44-7.533-4.867 0-8.246 3.162-8.246 8.03 0 9.222 10.617 12.198 18.057 12.198 12.013 0 22.227-7.828 22.227-21.716M29.471 5.84c-.697 0-1.286.604-1.286 1.286v90.288c0 .697.589 1.286 1.286 1.286h7.146c.697 0 1.286-.589 1.286-1.286V7.126c0-.682-.589-1.286-1.286-1.286z" style="stroke-width:.992" transform="translate(0 47.143)"/><path style="stroke:#000;stroke-width:3.22452;stroke-dasharray:none;paint-order:markers stroke fill" d="M0 .015h113.792M0 25.89h113.792M0 51.765h113.792M0 77.64h113.792M0 103.516h113.792M0 25.89h113.792M0 51.765h113.792M0 77.64h113.792M0 103.516h113.792" transform="translate(0 47.143)"/></svg>
