<svg width="118.57" height="214.335" viewBox="0 0 118.57 214.335" version="1.2" xmlns="http://www.w3.org/2000/svg"><path class="Clef" d="M50.425 496.646c-7.549 0-13.594 4.356-13.702 4.356-5.844 4.262-9.61 10.819-9.61 18.057 0 7.239 4.154 12.602 11.5 12.602 6.356 0 11.316-4.263 11.316-10.82 0-5.657-4.96-10.307-10.525-10.307-1.193 0-2.278.186-3.177.496-.992.388-2.666 1.38-3.472 2.077.697-4.37 3.673-8.726 7.548-10.819 2.48-1.38 5.658-1.984 9.13-1.984 10.121 0 15.081 8.138 15.081 24.8 0 12.896-8.246 31.45-17.964 40.192-10.323 9.424-20.042 13.888-20.135 13.888 0 0-1.193.682-1.193 1.875 0 .202.093.295.093.496.31.992 1.193 1.194 1.89 1.194l.295-.093c.202 0 11.517-4.666 20.538-11.718 13.888-10.013 29.558-27.668 29.558-45.927 0-17.267-9.315-28.365-27.171-28.365m31.14 12.586c0 2.79 2.185 4.96 4.773 4.96 2.573 0 4.759-2.17 4.759-4.96 0-2.774-2.186-5.053-4.759-5.053-2.588 0-4.774 2.279-4.774 5.053m0 24.506c0 2.774 2.186 5.068 4.774 5.068 2.573 0 4.759-2.294 4.759-5.068 0-2.775-2.186-5.053-4.759-5.053-2.588 0-4.774 2.278-4.774 5.053" style="stroke-width:.992" transform="translate(1.126 -448.465)"/><path style="stroke:#000;stroke-width:3.29154;stroke-dasharray:none;paint-order:markers stroke fill" d="M-1.126 495.62h118.571M-1.126 521.495h118.571M-1.126 547.37h118.571M-1.126 573.245h118.571M-1.126 599.12h118.571M-1.126 521.495h118.571M-1.126 547.37h118.571M-1.126 573.245h118.571M-1.126 599.12h118.571" transform="translate(1.126 -448.465)"/></svg>
