<svg width="115.448" height="214.34" viewBox="0 0 115.448 214.34" version="1.2" xmlns="http://www.w3.org/2000/svg"><path class="KeySig" d="M38.203 63.176c.62-.097 1.13-.824 1.13-1.453v-6.088c0-1.033-.716-1.453-1.639-1.453l-3.357.727V39.504H31.49v16.018l-9.067 1.873v-14.58h-2.848v15.194l-3.976.823c-.605.113-1.114.824-1.114 1.454v5.99c0 1.13.811 1.454 1.734 1.454l3.356-.727v17.052l-3.976.823c-.605.097-1.114.824-1.114 1.453v5.991c0 1.13.811 1.437 1.734 1.437l3.356-.71v15.388h2.848V92.42l9.067-1.857v14.581h2.847V89.948l3.866-.726c.62-.113 1.13-.824 1.13-1.454v-6.087c0-1.034-.716-1.453-1.639-1.453l-3.357.726V63.903zm-15.78 3.197 9.067-1.857v17.052l-9.067 1.97zm43.664 35.557c.62-.097 1.13-.824 1.13-1.454V94.39c0-1.034-.717-1.453-1.64-1.453l-3.355.726V78.258h-2.848v16.018l-9.067 1.873V81.568H47.46v15.195l-3.977.823c-.605.113-1.114.824-1.114 1.453v5.991c0 1.13.811 1.453 1.734 1.453l3.357-.726v17.051l-3.977.824c-.605.097-1.114.823-1.114 1.453v5.99c0 1.131.811 1.438 1.734 1.438l3.357-.71v15.388h2.847v-16.018l9.067-1.857v14.58h2.848v-15.194l3.865-.727c.62-.113 1.13-.823 1.13-1.453v-6.087c0-1.034-.717-1.454-1.64-1.454l-3.355.727v-17.052zm-15.78 3.197 9.067-1.857v17.052l-9.067 1.97zm43.674-54.869c.62-.097 1.13-.823 1.13-1.453v-6.088c0-1.033-.716-1.453-1.639-1.453l-3.356.727V26.586h-2.848v16.018l-9.067 1.873v-14.58h-2.847V45.09l-3.977.824c-.604.112-1.114.823-1.114 1.453v5.99c0 1.13.812 1.454 1.734 1.454l3.357-.727v17.052l-3.977.823c-.604.097-1.114.824-1.114 1.453v5.991c0 1.13.812 1.437 1.734 1.437l3.357-.71v15.388h2.847V79.501l9.067-1.857v14.581h2.848V77.031l3.865-.727c.62-.113 1.13-.824 1.13-1.453v-6.088c0-1.033-.716-1.453-1.639-1.453l-3.356.726V50.985zm-15.78 3.197 9.067-1.857V68.65l-9.067 1.97z" style="stroke-width:1.02572"/><path class="StaffLines" fill="none" stroke="#000" stroke-width="2.73" stroke-linejoin="bevel" transform="matrix(.0457 0 0 1.04176 -15.381 -613.193)" d="M336.598 634.198H2847.4m-2510.802 24.8H2847.4m-2510.802 24.8H2847.4m-2510.802 24.8H2847.4m-2510.802 24.8H2847.4m-2510.802-99.2H2847.4m-2510.802 24.8H2847.4m-2510.802 24.8H2847.4m-2510.802 24.8H2847.4m-2510.802 24.8H2847.4"/></svg>
