<svg width="56.29" height="214.34" viewBox="0 0 56.29 214.34" version="1.2" xmlns="http://www.w3.org/2000/svg"><path class="KeySig" d="M31.064 109.68c-5.09 0-8.049 3.198-8.558 3.827l.414-33.183c0-.823-.605-1.437-1.432-1.437H20.28c-.827 0-1.432.614-1.432 1.437l.51 62.12c0 .823.604 1.437 1.431 1.437.191 0 .605-.097.811-.194 8.75-4.457 17.912-12.918 17.912-23.575 0-5.361-2.434-10.432-8.447-10.432m-8.86 29.146.302-20.152c.207-.936 1.734-3.923 5.807-3.923 3.674 0 3.976 3.504 3.976 5.684 0 9.187-3.356 13.014-10.085 18.391" style="stroke-width:1.02572"/><path class="StaffLines" fill="none" stroke="#000" stroke-width="2.73" stroke-linejoin="bevel" transform="matrix(.02242 0 0 1.04176 -7.534 -613.193)" d="M336.598 634.198H2847.4m-2510.802 24.8H2847.4m-2510.802 24.8H2847.4m-2510.802 24.8H2847.4m-2510.802 24.8H2847.4m-2510.802-99.2H2847.4m-2510.802 24.8H2847.4m-2510.802 24.8H2847.4m-2510.802 24.8H2847.4m-2510.802 24.8H2847.4"/></svg>
