<svg width="131.82" height="214.34" viewBox="0 0 131.82 214.34" version="1.2" xmlns="http://www.w3.org/2000/svg"><path class="KeySig" d="M27.77 109.68c-5.09 0-8.048 3.198-8.557 3.827l.413-33.183c0-.823-.604-1.437-1.431-1.437h-1.21c-.827 0-1.431.614-1.431 1.437l.509 62.12c0 .823.604 1.437 1.432 1.437.19 0 .604-.097.811-.194 8.749-4.457 17.912-12.918 17.912-23.575 0-5.361-2.434-10.432-8.447-10.432m-8.86 29.146.302-20.152c.206-.936 1.734-3.923 5.806-3.923 3.674 0 3.977 3.504 3.977 5.684 0 9.187-3.357 13.014-10.086 18.391m37.166-67.899c-5.09 0-8.05 3.197-8.559 3.827l.414-33.183c0-.824-.604-1.437-1.432-1.437H45.29c-.827 0-1.431.613-1.431 1.437l.509 62.119c0 .823.604 1.437 1.431 1.437.191 0 .605-.097.812-.194 8.749-4.457 17.911-12.918 17.911-23.575 0-5.361-2.433-10.431-8.446-10.431m-8.86 29.146.301-20.152c.207-.937 1.734-3.924 5.807-3.924 3.674 0 3.976 3.504 3.976 5.684 0 9.188-3.356 13.015-10.085 18.392m37.155 22.525c-5.09 0-8.049 3.197-8.558 3.827l.414-33.183c0-.823-.605-1.437-1.432-1.437h-1.209c-.827 0-1.432.614-1.432 1.437l.51 62.12c0 .823.604 1.436 1.431 1.436.191 0 .605-.096.811-.193 8.75-4.457 17.912-12.918 17.912-23.576 0-5.36-2.434-10.43-8.447-10.43m-8.86 29.145.302-20.152c.207-.936 1.734-3.923 5.806-3.923 3.675 0 3.977 3.504 3.977 5.683 0 9.188-3.356 13.015-10.085 18.392m37.145-67.899c-5.09 0-8.05 3.197-8.559 3.827l.414-33.183c0-.824-.604-1.437-1.432-1.437h-1.209c-.827 0-1.431.613-1.431 1.437l.509 62.119c0 .823.604 1.437 1.431 1.437.191 0 .605-.097.812-.194 8.749-4.457 17.912-12.918 17.912-23.575 0-5.361-2.434-10.431-8.447-10.431m-8.86 29.146.301-20.152c.207-.937 1.734-3.924 5.807-3.924 3.674 0 3.977 3.504 3.977 5.684 0 9.188-3.357 13.015-10.086 18.392" style="stroke-width:1.02572"/><path class="StaffLines" fill="none" stroke="#000" stroke-width="2.73" stroke-linejoin="bevel" transform="matrix(.0525 0 0 1.04176 -17.95 -613.193)" d="M336.598 634.198H2847.4m-2510.802 24.8H2847.4m-2510.802 24.8H2847.4m-2510.802 24.8H2847.4m-2510.802 24.8H2847.4m-2510.802-99.2H2847.4m-2510.802 24.8H2847.4m-2510.802 24.8H2847.4m-2510.802 24.8H2847.4m-2510.802 24.8H2847.4"/></svg>
