<svg width="56.278" height="214.34" viewBox="0 0 56.278 214.34" version="1.2" xmlns="http://www.w3.org/2000/svg"><path class="KeySig" d="M31.053 93.68c-5.09 0-8.05 3.198-8.558 3.827l.413-33.183c0-.823-.604-1.437-1.431-1.437h-1.21c-.827 0-1.431.614-1.431 1.437l.509 62.12c0 .823.605 1.437 1.432 1.437.19 0 .604-.097.81-.194 8.75-4.457 17.913-12.918 17.913-23.575 0-5.361-2.434-10.432-8.447-10.432m-8.86 29.146.302-20.152c.206-.936 1.734-3.923 5.806-3.923 3.674 0 3.977 3.504 3.977 5.684 0 9.187-3.357 13.014-10.086 18.391" style="stroke-width:1.02572"/><path class="StaffLines" fill="none" stroke="#000" stroke-width="2.73" stroke-linejoin="bevel" transform="matrix(.02242 0 0 1.04176 -7.545 -613.194)" d="M336.598 634.198H2847.4m-2510.802 24.8H2847.4m-2510.802 24.8H2847.4m-2510.802 24.8H2847.4m-2510.802 24.8H2847.4m-2510.802-99.2H2847.4m-2510.802 24.8H2847.4m-2510.802 24.8H2847.4m-2510.802 24.8H2847.4m-2510.802 24.8H2847.4"/></svg>
