<svg width="136.057" height="214.34" viewBox="0 0 136.057 214.34" version="1.2" xmlns="http://www.w3.org/2000/svg"><path class="KeySig" d="M37.781 37.176c.62-.097 1.13-.824 1.13-1.453v-6.088c0-1.033-.716-1.453-1.639-1.453l-3.356.727V13.504h-2.847v16.018L22 31.395v-14.58h-2.847v15.194l-3.977.823c-.604.113-1.114.824-1.114 1.454v5.99c0 1.13.812 1.454 1.734 1.454l3.357-.727v17.052l-3.977.823c-.604.097-1.114.824-1.114 1.453v5.991c0 1.13.812 1.437 1.734 1.437l3.357-.71v15.388H22V66.42l9.068-1.857v14.581h2.847V63.948l3.865-.726c.62-.113 1.13-.824 1.13-1.454v-6.087c0-1.034-.716-1.453-1.639-1.453l-3.356.726V37.903zm-15.78 3.197 9.068-1.857v17.052L22 57.538zM65.666 75.93c.62-.097 1.129-.824 1.129-1.454V68.39c0-1.034-.716-1.453-1.639-1.453l-3.356.726V52.258h-2.848v16.018l-9.067 1.873V55.568h-2.847v15.195l-3.977.823c-.604.113-1.113.823-1.113 1.453v5.991c0 1.13.81 1.453 1.733 1.453l3.357-.726v17.051l-3.977.824c-.604.097-1.113.823-1.113 1.453v5.99c0 1.131.81 1.438 1.733 1.438l3.357-.71v15.388h2.847v-16.018l9.067-1.857v14.58H61.8v-15.194l3.866-.727c.62-.113 1.129-.823 1.129-1.453v-6.087c0-1.034-.716-1.454-1.639-1.454l-3.356.727V76.656zm-15.78 3.197 9.066-1.857v17.052l-9.067 1.97zM93.55 24.258c.62-.097 1.129-.823 1.129-1.453v-6.088c0-1.033-.716-1.453-1.638-1.453l-3.357.727V.586h-2.847v16.018l-9.068 1.873V3.897h-2.847V19.09l-3.977.824c-.604.112-1.113.823-1.113 1.453v5.99c0 1.13.81 1.454 1.734 1.454l3.356-.727v17.052l-3.977.823c-.604.097-1.113.824-1.113 1.453v5.991c0 1.13.81 1.437 1.734 1.437l3.356-.71v15.388h2.847V53.501l9.068-1.857v14.581h2.847V51.03l3.866-.726c.62-.113 1.129-.824 1.129-1.453v-6.088c0-1.033-.716-1.453-1.638-1.453l-3.357.726V24.985zm-15.78 3.197 9.067-1.857V42.65l-9.068 1.97zm43.643 35.557c.62-.097 1.13-.824 1.13-1.454v-6.087c0-1.033-.716-1.453-1.639-1.453l-3.356.726V39.34H114.7v16.018l-9.067 1.873V42.65h-2.847v15.195l-3.977.823c-.605.113-1.114.824-1.114 1.453v5.991c0 1.13.812 1.453 1.734 1.453l3.357-.726V83.89l-3.977.824c-.605.097-1.114.823-1.114 1.453v5.99c0 1.131.812 1.438 1.734 1.438l3.357-.71v15.388h2.847V92.255l9.067-1.857v14.58h2.848V89.785l3.865-.727c.62-.113 1.13-.823 1.13-1.453v-6.087c0-1.034-.716-1.454-1.639-1.454l-3.356.727V63.738zm-15.78 3.197 9.067-1.857v17.052l-9.067 1.97z" style="stroke-width:1.02572"/><g fill="none" stroke="#000" stroke-width="2.73" stroke-linejoin="bevel"><path class="StaffLines" transform="matrix(.03806 0 0 1.04176 -566.908 -613.194)" d="M336.598 634.198H2847.4m-2510.802 24.8H2847.4m-2510.802 24.8H2847.4m-2510.802 24.8H2847.4m-2510.802 24.8H2847.4m-2510.802-99.2H2847.4m-2510.802 24.8H2847.4m-2510.802 24.8H2847.4m-2510.802 24.8H2847.4m-2510.802 24.8H2847.4"/><path class="StaffLines" transform="matrix(.0457 0 0 1.04176 -279.479 -613.194)" d="M336.598 634.198H2847.4m-2510.802 24.8H2847.4m-2510.802 24.8H2847.4m-2510.802 24.8H2847.4m-2510.802 24.8H2847.4m-2510.802-99.2H2847.4m-2510.802 24.8H2847.4m-2510.802 24.8H2847.4m-2510.802 24.8H2847.4m-2510.802 24.8H2847.4"/><path class="StaffLines" transform="matrix(.05427 0 0 1.04176 -18.364 -613.194)" d="M336.598 634.198H2847.4m-2510.802 24.8H2847.4m-2510.802 24.8H2847.4m-2510.802 24.8H2847.4m-2510.802 24.8H2847.4m-2510.802-99.2H2847.4m-2510.802 24.8H2847.4m-2510.802 24.8H2847.4m-2510.802 24.8H2847.4m-2510.802 24.8H2847.4"/><path class="StaffLines" transform="matrix(.06428 0 0 1.04176 244.264 -613.194)" d="M336.598 634.198H2847.4m-2510.802 24.8H2847.4m-2510.802 24.8H2847.4m-2510.802 24.8H2847.4m-2510.802 24.8H2847.4m-2510.802-99.2H2847.4m-2510.802 24.8H2847.4m-2510.802 24.8H2847.4m-2510.802 24.8H2847.4m-2510.802 24.8H2847.4"/><path class="StaffLines" transform="matrix(.07415 0 0 1.04176 504.942 -613.194)" d="M336.598 634.198H2847.4m-2510.802 24.8H2847.4m-2510.802 24.8H2847.4m-2510.802 24.8H2847.4m-2510.802 24.8H2847.4m-2510.802-99.2H2847.4m-2510.802 24.8H2847.4m-2510.802 24.8H2847.4m-2510.802 24.8H2847.4m-2510.802 24.8H2847.4"/><path class="StaffLines" transform="matrix(.08214 0 0 1.04176 770.254 -613.194)" d="M336.598 634.198H2847.4m-2510.802 24.8H2847.4m-2510.802 24.8H2847.4m-2510.802 24.8H2847.4m-2510.802 24.8H2847.4m-2510.802-99.2H2847.4m-2510.802 24.8H2847.4m-2510.802 24.8H2847.4m-2510.802 24.8H2847.4m-2510.802 24.8H2847.4"/><path class="StaffLines" transform="matrix(.02242 0 0 1.04176 1042.356 -613.194)" d="M336.598 634.198H2847.4m-2510.802 24.8H2847.4m-2510.802 24.8H2847.4m-2510.802 24.8H2847.4m-2510.802 24.8H2847.4m-2510.802-99.2H2847.4m-2510.802 24.8H2847.4m-2510.802 24.8H2847.4m-2510.802 24.8H2847.4m-2510.802 24.8H2847.4"/><path class="StaffLines" transform="matrix(.03551 0 0 1.04176 1297.948 -613.194)" d="M336.598 634.198H2847.4m-2510.802 24.8H2847.4m-2510.802 24.8H2847.4m-2510.802 24.8H2847.4m-2510.802 24.8H2847.4m-2510.802-99.2H2847.4m-2510.802 24.8H2847.4m-2510.802 24.8H2847.4m-2510.802 24.8H2847.4m-2510.802 24.8H2847.4"/><path class="StaffLines" transform="matrix(.04602 0 0 1.04176 1562.41 -613.194)" d="M336.598 634.198H2847.4m-2510.802 24.8H2847.4m-2510.802 24.8H2847.4m-2510.802 24.8H2847.4m-2510.802 24.8H2847.4m-2510.802-99.2H2847.4m-2510.802 24.8H2847.4m-2510.802 24.8H2847.4m-2510.802 24.8H2847.4m-2510.802 24.8H2847.4"/><path class="StaffLines" transform="matrix(.0525 0 0 1.04176 1840.23 -613.194)" d="M336.598 634.198H2847.4m-2510.802 24.8H2847.4m-2510.802 24.8H2847.4m-2510.802 24.8H2847.4m-2510.802 24.8H2847.4m-2510.802-99.2H2847.4m-2510.802 24.8H2847.4m-2510.802 24.8H2847.4m-2510.802 24.8H2847.4m-2510.802 24.8H2847.4"/><path class="StaffLines" transform="matrix(.06597 0 0 1.04176 2113.695 -613.194)" d="M336.598 634.198H2847.4m-2510.802 24.8H2847.4m-2510.802 24.8H2847.4m-2510.802 24.8H2847.4m-2510.802 24.8H2847.4m-2510.802-99.2H2847.4m-2510.802 24.8H2847.4m-2510.802 24.8H2847.4m-2510.802 24.8H2847.4m-2510.802 24.8H2847.4"/><path class="StaffLines" transform="matrix(.07113 0 0 1.04176 2415.961 -613.194)" d="M336.598 634.198H2847.4m-2510.802 24.8H2847.4m-2510.802 24.8H2847.4m-2510.802 24.8H2847.4m-2510.802 24.8H2847.4m-2510.802-99.2H2847.4m-2510.802 24.8H2847.4m-2510.802 24.8H2847.4m-2510.802 24.8H2847.4m-2510.802 24.8H2847.4"/><path class="StaffLines" transform="matrix(.08214 0 0 1.04176 2702.254 -613.194)" d="M336.598 634.198H2847.4m-2510.802 24.8H2847.4m-2510.802 24.8H2847.4m-2510.802 24.8H2847.4m-2510.802 24.8H2847.4m-2510.802-99.2H2847.4m-2510.802 24.8H2847.4m-2510.802 24.8H2847.4m-2510.802 24.8H2847.4m-2510.802 24.8H2847.4"/></g></svg>
