<svg width="206.24" height="214.34" viewBox="0 0 206.24 214.34" version="1.2" xmlns="http://www.w3.org/2000/svg"><path class="KeySig" d="M31.085 37.176c.62-.097 1.13-.824 1.13-1.453v-6.088c0-1.033-.717-1.453-1.64-1.453l-3.356.727V13.504h-2.847v16.018l-9.067 1.873v-14.58h-2.848v15.194l-3.977.823c-.604.113-1.113.824-1.113 1.454v5.99c0 1.13.811 1.454 1.734 1.454l3.356-.727v17.052l-3.977.823c-.604.097-1.113.824-1.113 1.453v5.991c0 1.13.811 1.437 1.734 1.437l3.356-.71v15.388h2.848V66.42l9.067-1.857v14.581h2.847V63.948l3.866-.726c.62-.113 1.13-.824 1.13-1.454v-6.087c0-1.034-.717-1.453-1.64-1.453l-3.356.726V37.903zm-15.78 3.197 9.067-1.857v17.052l-9.067 1.97zM58.969 75.93c.62-.097 1.13-.824 1.13-1.454V68.39c0-1.034-.717-1.453-1.64-1.453l-3.356.726V52.258h-2.847v16.018l-9.067 1.873V55.568H40.34v15.195l-3.976.823c-.605.113-1.114.823-1.114 1.453v5.991c0 1.13.811 1.453 1.734 1.453l3.356-.726v17.051l-3.976.824c-.605.097-1.114.823-1.114 1.453v5.99c0 1.131.811 1.438 1.734 1.438l3.356-.71v15.388h2.848v-16.018l9.067-1.857v14.58h2.847v-15.194l3.866-.727c.62-.113 1.13-.823 1.13-1.453v-6.087c0-1.034-.717-1.454-1.64-1.454l-3.356.727V76.656zm-15.78 3.197 9.067-1.857v17.052l-9.067 1.97zm43.674-54.869c.62-.097 1.13-.823 1.13-1.453v-6.088c0-1.033-.716-1.453-1.639-1.453l-3.356.727V.586H80.15v16.018l-9.067 1.873V3.897h-2.847V19.09l-3.977.824c-.605.112-1.114.823-1.114 1.453v5.99c0 1.13.812 1.454 1.734 1.454l3.357-.727v17.052l-3.977.823c-.605.097-1.114.824-1.114 1.453v5.991c0 1.13.812 1.437 1.734 1.437l3.357-.71v15.388h2.847V53.501l9.067-1.857v14.581h2.848V51.03l3.865-.726c.62-.113 1.13-.824 1.13-1.453v-6.088c0-1.033-.716-1.453-1.639-1.453l-3.356.726V24.985zm-15.78 3.197 9.067-1.857V42.65l-9.067 1.97zm43.644 35.557c.62-.097 1.13-.824 1.13-1.454v-6.087c0-1.033-.717-1.453-1.64-1.453l-3.356.726V39.34h-2.847v16.018l-9.067 1.873V42.65h-2.848v15.195l-3.977.823c-.604.113-1.113.824-1.113 1.453v5.991c0 1.13.811 1.453 1.734 1.453l3.356-.726V83.89l-3.977.824c-.604.097-1.113.823-1.113 1.453v5.99c0 1.131.811 1.438 1.734 1.438l3.356-.71v15.388h2.848V92.255l9.067-1.857v14.58h2.847V89.785l3.866-.727c.62-.113 1.13-.823 1.13-1.453v-6.087c0-1.034-.717-1.454-1.64-1.454l-3.356.727V63.738zm-15.78 3.197 9.067-1.857v17.052l-9.067 1.97zm43.684 35.556c.621-.096 1.13-.823 1.13-1.453v-6.087c0-1.034-.716-1.454-1.639-1.454l-3.356.727V78.093h-2.847v16.019l-9.068 1.873V81.404h-2.847v15.194l-3.977.824c-.604.113-1.114.823-1.114 1.453v5.99c0 1.131.812 1.454 1.734 1.454l3.357-.727v17.052l-3.977.823c-.604.097-1.114.824-1.114 1.454v5.99c0 1.13.812 1.438 1.734 1.438l3.357-.71v15.388h2.847v-16.019l9.068-1.857v14.581h2.847v-15.194l3.865-.727c.62-.113 1.13-.823 1.13-1.453v-6.088c0-1.033-.716-1.453-1.639-1.453l-3.356.727v-17.052zm-15.78 3.198 9.068-1.857v17.051l-9.068 1.97zm43.665-54.869c.62-.097 1.13-.824 1.13-1.453v-6.088c0-1.033-.717-1.453-1.64-1.453l-3.356.726V26.422h-2.847V42.44l-9.068 1.873v-14.58h-2.847v15.194l-3.977.823c-.604.113-1.113.824-1.113 1.454v5.99c0 1.13.811 1.453 1.734 1.453l3.356-.726v17.051l-3.977.824c-.604.097-1.113.823-1.113 1.453v5.99c0 1.131.811 1.438 1.734 1.438l3.356-.71v15.388h2.847V79.337l9.068-1.857v14.58h2.847V76.867l3.866-.726c.62-.113 1.13-.824 1.13-1.454V68.6c0-1.034-.717-1.453-1.64-1.453l-3.356.726V50.821zm-15.78 3.197 9.067-1.857v17.052l-9.068 1.97zM198.4 88.848c.62-.098 1.13-.824 1.13-1.454v-6.087c0-1.034-.717-1.454-1.64-1.454l-3.356.727V65.175h-2.847v16.019l-9.067 1.873V68.486h-2.848V83.68l-3.977.824c-.604.113-1.113.823-1.113 1.453v5.99c0 1.131.811 1.454 1.734 1.454l3.356-.727v17.052l-3.977.824c-.604.097-1.113.823-1.113 1.453v5.99c0 1.13.811 1.438 1.734 1.438l3.356-.71v15.388h2.848V118.09l9.067-1.857v14.582h2.847V115.62l3.866-.727c.62-.113 1.13-.823 1.13-1.453v-6.088c0-1.033-.717-1.453-1.64-1.453l-3.356.727V89.574zm-15.78 3.197 9.067-1.857v17.051l-9.067 1.97z" style="stroke-width:1.02572"/><g fill="none" stroke="#000" stroke-width="2.73" stroke-linejoin="bevel"><path class="StaffLines" transform="matrix(.03806 0 0 1.04176 -1364.603 -613.194)" d="M336.598 634.198H2847.4m-2510.802 24.8H2847.4m-2510.802 24.8H2847.4m-2510.802 24.8H2847.4m-2510.802 24.8H2847.4m-2510.802-99.2H2847.4m-2510.802 24.8H2847.4m-2510.802 24.8H2847.4m-2510.802 24.8H2847.4m-2510.802 24.8H2847.4"/><path class="StaffLines" transform="matrix(.0457 0 0 1.04176 -1077.174 -613.194)" d="M336.598 634.198H2847.4m-2510.802 24.8H2847.4m-2510.802 24.8H2847.4m-2510.802 24.8H2847.4m-2510.802 24.8H2847.4m-2510.802-99.2H2847.4m-2510.802 24.8H2847.4m-2510.802 24.8H2847.4m-2510.802 24.8H2847.4m-2510.802 24.8H2847.4"/><path class="StaffLines" transform="matrix(.05427 0 0 1.04176 -816.059 -613.194)" d="M336.598 634.198H2847.4m-2510.802 24.8H2847.4m-2510.802 24.8H2847.4m-2510.802 24.8H2847.4m-2510.802 24.8H2847.4m-2510.802-99.2H2847.4m-2510.802 24.8H2847.4m-2510.802 24.8H2847.4m-2510.802 24.8H2847.4m-2510.802 24.8H2847.4"/><path class="StaffLines" transform="matrix(.06428 0 0 1.04176 -553.431 -613.194)" d="M336.598 634.198H2847.4m-2510.802 24.8H2847.4m-2510.802 24.8H2847.4m-2510.802 24.8H2847.4m-2510.802 24.8H2847.4m-2510.802-99.2H2847.4m-2510.802 24.8H2847.4m-2510.802 24.8H2847.4m-2510.802 24.8H2847.4m-2510.802 24.8H2847.4"/><path class="StaffLines" transform="matrix(.07415 0 0 1.04176 -292.753 -613.194)" d="M336.598 634.198H2847.4m-2510.802 24.8H2847.4m-2510.802 24.8H2847.4m-2510.802 24.8H2847.4m-2510.802 24.8H2847.4m-2510.802-99.2H2847.4m-2510.802 24.8H2847.4m-2510.802 24.8H2847.4m-2510.802 24.8H2847.4m-2510.802 24.8H2847.4"/><path class="StaffLines" transform="matrix(.08214 0 0 1.04176 -27.441 -613.194)" d="M336.598 634.198H2847.4m-2510.802 24.8H2847.4m-2510.802 24.8H2847.4m-2510.802 24.8H2847.4m-2510.802 24.8H2847.4m-2510.802-99.2H2847.4m-2510.802 24.8H2847.4m-2510.802 24.8H2847.4m-2510.802 24.8H2847.4m-2510.802 24.8H2847.4"/><path class="StaffLines" transform="matrix(.02242 0 0 1.04176 244.661 -613.194)" d="M336.598 634.198H2847.4m-2510.802 24.8H2847.4m-2510.802 24.8H2847.4m-2510.802 24.8H2847.4m-2510.802 24.8H2847.4m-2510.802-99.2H2847.4m-2510.802 24.8H2847.4m-2510.802 24.8H2847.4m-2510.802 24.8H2847.4m-2510.802 24.8H2847.4"/><path class="StaffLines" transform="matrix(.03551 0 0 1.04176 500.253 -613.194)" d="M336.598 634.198H2847.4m-2510.802 24.8H2847.4m-2510.802 24.8H2847.4m-2510.802 24.8H2847.4m-2510.802 24.8H2847.4m-2510.802-99.2H2847.4m-2510.802 24.8H2847.4m-2510.802 24.8H2847.4m-2510.802 24.8H2847.4m-2510.802 24.8H2847.4"/><path class="StaffLines" transform="matrix(.04602 0 0 1.04176 764.715 -613.194)" d="M336.598 634.198H2847.4m-2510.802 24.8H2847.4m-2510.802 24.8H2847.4m-2510.802 24.8H2847.4m-2510.802 24.8H2847.4m-2510.802-99.2H2847.4m-2510.802 24.8H2847.4m-2510.802 24.8H2847.4m-2510.802 24.8H2847.4m-2510.802 24.8H2847.4"/><path class="StaffLines" transform="matrix(.0525 0 0 1.04176 1042.535 -613.194)" d="M336.598 634.198H2847.4m-2510.802 24.8H2847.4m-2510.802 24.8H2847.4m-2510.802 24.8H2847.4m-2510.802 24.8H2847.4m-2510.802-99.2H2847.4m-2510.802 24.8H2847.4m-2510.802 24.8H2847.4m-2510.802 24.8H2847.4m-2510.802 24.8H2847.4"/><path class="StaffLines" transform="matrix(.06597 0 0 1.04176 1316 -613.194)" d="M336.598 634.198H2847.4m-2510.802 24.8H2847.4m-2510.802 24.8H2847.4m-2510.802 24.8H2847.4m-2510.802 24.8H2847.4m-2510.802-99.2H2847.4m-2510.802 24.8H2847.4m-2510.802 24.8H2847.4m-2510.802 24.8H2847.4m-2510.802 24.8H2847.4"/><path class="StaffLines" transform="matrix(.07113 0 0 1.04176 1618.266 -613.194)" d="M336.598 634.198H2847.4m-2510.802 24.8H2847.4m-2510.802 24.8H2847.4m-2510.802 24.8H2847.4m-2510.802 24.8H2847.4m-2510.802-99.2H2847.4m-2510.802 24.8H2847.4m-2510.802 24.8H2847.4m-2510.802 24.8H2847.4m-2510.802 24.8H2847.4"/><path class="StaffLines" transform="matrix(.08214 0 0 1.04176 1904.559 -613.194)" d="M336.598 634.198H2847.4m-2510.802 24.8H2847.4m-2510.802 24.8H2847.4m-2510.802 24.8H2847.4m-2510.802 24.8H2847.4m-2510.802-99.2H2847.4m-2510.802 24.8H2847.4m-2510.802 24.8H2847.4m-2510.802 24.8H2847.4m-2510.802 24.8H2847.4"/></g></svg>
