<svg width="56.934" height="214.34" viewBox="0 0 56.934 214.34" version="1.2" xmlns="http://www.w3.org/2000/svg"><path class="KeySig" d="M38.87 63.176c.62-.097 1.129-.824 1.129-1.453v-6.088c0-1.033-.716-1.453-1.639-1.453l-3.356.727V39.504h-2.848v16.018l-9.067 1.873v-14.58h-2.847v15.194l-3.977.823c-.605.113-1.114.824-1.114 1.454v5.99c0 1.13.811 1.454 1.734 1.454l3.357-.727v17.052l-3.977.823c-.605.097-1.114.824-1.114 1.453v5.991c0 1.13.811 1.437 1.734 1.437l3.357-.71v15.388h2.847V92.42l9.067-1.857v14.581h2.848V89.948l3.865-.726c.62-.113 1.13-.824 1.13-1.454v-6.087c0-1.034-.716-1.453-1.639-1.453l-3.356.726V63.903zm-15.78 3.197 9.067-1.857v17.052l-9.067 1.97z" style="stroke-width:1.02572"/><path class="StaffLines" d="M336.598 634.198H2847.4m-2510.802 24.8H2847.4m-2510.802 24.8H2847.4m-2510.802 24.8H2847.4m-2510.802 24.8H2847.4m-2510.802-99.2H2847.4m-2510.802 24.8H2847.4m-2510.802 24.8H2847.4m-2510.802 24.8H2847.4m-2510.802 24.8H2847.4" transform="matrix(.02268 0 0 1.04176 -7.633 -613.194)" fill="none" stroke="#000" stroke-width="2.73" stroke-linejoin="bevel"/></svg>
