<svg width="186.088" height="214.34" viewBox="0 0 186.088 214.34" version="1.2" xmlns="http://www.w3.org/2000/svg"><path class="KeySig" d="M35.211 47.176c.62-.097 1.13-.824 1.13-1.453v-6.088c0-1.033-.716-1.453-1.639-1.453l-3.356.727V23.504h-2.848v16.018l-9.067 1.873v-14.58h-2.847v15.194l-3.977.823c-.604.113-1.114.824-1.114 1.454v5.99c0 1.13.812 1.454 1.734 1.454l3.357-.727v17.052l-3.977.823c-.604.097-1.114.824-1.114 1.453v5.991c0 1.13.812 1.437 1.734 1.437l3.357-.71v15.388h2.847V76.42l9.067-1.857v14.581h2.848V73.948l3.865-.726c.62-.113 1.13-.824 1.13-1.454v-6.087c0-1.034-.716-1.453-1.639-1.453l-3.356.726V47.903zm-15.78 3.197 9.067-1.857v17.052l-9.067 1.97zM63.095 85.93c.621-.097 1.13-.824 1.13-1.454V78.39c0-1.034-.716-1.453-1.639-1.453l-3.356.726V62.258h-2.848v16.018l-9.067 1.873V65.568h-2.847v15.195l-3.977.823c-.605.113-1.113.823-1.113 1.453v5.991c0 1.13.81 1.453 1.733 1.453l3.357-.726v17.051l-3.977.824c-.605.097-1.113.823-1.113 1.453v5.99c0 1.131.81 1.438 1.733 1.438l3.357-.71v15.388h2.847v-16.018l9.067-1.857v14.58h2.848v-15.194l3.865-.727c.621-.113 1.13-.823 1.13-1.453v-6.087c0-1.034-.716-1.454-1.639-1.454l-3.356.727V86.656zm-15.78 3.197 9.067-1.857v17.051l-9.067 1.97zM90.98 34.258c.62-.097 1.129-.823 1.129-1.453v-6.088c0-1.033-.716-1.453-1.638-1.453l-3.357.727V10.586h-2.847v16.018l-9.068 1.873v-14.58h-2.847V29.09l-3.977.823c-.604.113-1.113.824-1.113 1.454v5.99c0 1.13.811 1.454 1.734 1.454l3.356-.727v17.052l-3.977.823c-.604.097-1.113.824-1.113 1.453v5.991c0 1.13.811 1.437 1.734 1.437l3.356-.71v15.388h2.847V63.501l9.068-1.857v14.581h2.847V61.03l3.865-.726c.621-.113 1.13-.824 1.13-1.453v-6.088c0-1.033-.716-1.453-1.638-1.453l-3.357.726V34.985zM75.2 37.455l9.068-1.857V52.65L75.2 54.62zm43.653 35.557c.62-.097 1.13-.824 1.13-1.454v-6.087c0-1.033-.716-1.453-1.639-1.453l-3.356.726V49.34h-2.848v16.018l-9.067 1.873V52.65h-2.847v15.195l-3.977.823c-.605.113-1.113.824-1.113 1.453v5.991c0 1.13.81 1.453 1.733 1.453l3.357-.726V93.89l-3.977.824c-.605.097-1.113.823-1.113 1.453v5.99c0 1.131.81 1.438 1.733 1.438l3.357-.71v15.388h2.847v-16.018l9.067-1.857v14.58h2.848V99.785l3.865-.727c.62-.113 1.13-.823 1.13-1.453v-6.087c0-1.034-.716-1.454-1.639-1.454l-3.356.727V73.738zm-15.78 3.197 9.067-1.857v17.052l-9.067 1.97zm43.685 35.556c.62-.096 1.13-.823 1.13-1.453v-6.087c0-1.034-.716-1.454-1.639-1.454l-3.357.727V88.093h-2.847v16.019l-9.067 1.873V91.404h-2.848v15.194l-3.976.824c-.605.113-1.114.823-1.114 1.453v5.99c0 1.131.811 1.454 1.734 1.454l3.356-.727v17.052l-3.976.823c-.605.097-1.114.824-1.114 1.454v5.99c0 1.13.811 1.438 1.734 1.438l3.356-.71v15.387h2.848v-16.018l9.067-1.857v14.581h2.847v-15.194l3.866-.727c.62-.113 1.13-.823 1.13-1.453v-6.088c0-1.033-.716-1.453-1.639-1.453l-3.357.727v-17.052zm-15.78 3.198 9.067-1.857v17.051l-9.067 1.97zm43.664-54.869c.62-.097 1.13-.824 1.13-1.453v-6.088c0-1.033-.716-1.453-1.639-1.453l-3.356.726V36.422h-2.848V52.44l-9.067 1.873v-14.58h-2.847v15.194l-3.977.823c-.605.113-1.114.824-1.114 1.454v5.99c0 1.13.811 1.453 1.734 1.453l3.357-.726v17.051l-3.977.824c-.605.097-1.114.823-1.114 1.453v5.99c0 1.131.811 1.438 1.734 1.438l3.357-.71v15.388h2.847V89.337l9.067-1.857v14.58h2.848V86.867l3.865-.726c.62-.113 1.13-.824 1.13-1.454V78.6c0-1.034-.716-1.454-1.639-1.454l-3.356.727V60.821zm-15.78 3.197 9.067-1.857v17.052l-9.067 1.97z" style="stroke-width:1.02572"/><path class="StaffLines" fill="none" stroke="#000" stroke-width="2.73" stroke-linejoin="bevel" transform="matrix(.07415 0 0 1.04176 -24.96 -613.194)" d="M336.598 634.198H2847.4m-2510.802 24.8H2847.4m-2510.802 24.8H2847.4m-2510.802 24.8H2847.4m-2510.802 24.8H2847.4m-2510.802-99.2H2847.4m-2510.802 24.8H2847.4m-2510.802 24.8H2847.4m-2510.802 24.8H2847.4m-2510.802 24.8H2847.4"/></svg>
