<svg width="178.58" height="214.34" viewBox="0 0 178.58 214.34" version="1.2" xmlns="http://www.w3.org/2000/svg"><path class="KeySig" d="M20.565 109.89c-5.09 0-8.049 3.197-8.558 3.827l.414-33.183c0-.824-.605-1.438-1.432-1.438h-1.21c-.826 0-1.43.614-1.43 1.438l.508 62.119c0 .823.605 1.437 1.432 1.437.19 0 .605-.097.811-.194 8.75-4.457 17.912-12.918 17.912-23.575 0-5.361-2.434-10.431-8.447-10.431m-8.86 29.146.302-20.152c.207-.937 1.734-3.924 5.806-3.924 3.675 0 3.977 3.504 3.977 5.684 0 9.188-3.356 13.015-10.085 18.392m37.155-67.9c-5.09 0-8.05 3.197-8.558 3.827l.413-33.183c0-.823-.604-1.437-1.431-1.437h-1.21c-.827 0-1.431.614-1.431 1.437l.51 62.119c0 .824.604 1.437 1.43 1.437.192 0 .605-.098.812-.194 8.75-4.456 17.912-12.918 17.912-23.575 0-5.36-2.434-10.43-8.447-10.43M40 100.281l.302-20.152c.206-.936 1.734-3.924 5.806-3.924 3.675 0 3.977 3.504 3.977 5.684 0 9.188-3.357 13.015-10.086 18.392m37.156 22.526c-5.09 0-8.05 3.198-8.559 3.828l.414-33.183c0-.824-.604-1.437-1.432-1.437H66.37c-.827 0-1.431.613-1.431 1.437l.509 62.119c0 .823.604 1.437 1.431 1.437.191 0 .605-.098.812-.194 8.749-4.457 17.911-12.918 17.911-23.575 0-5.361-2.433-10.432-8.446-10.432m-8.86 29.147.301-20.152c.207-.937 1.734-3.924 5.807-3.924 3.674 0 3.976 3.504 3.976 5.684 0 9.188-3.356 13.014-10.085 18.391m37.144-67.899c-5.09 0-8.05 3.197-8.558 3.827l.413-33.183c0-.824-.604-1.437-1.431-1.437h-1.21c-.826 0-1.43.614-1.43 1.437l.508 62.119c0 .824.605 1.437 1.432 1.437.19 0 .604-.097.811-.194 8.75-4.456 17.912-12.918 17.912-23.575 0-5.36-2.434-10.431-8.447-10.431m-8.86 29.146.302-20.152c.207-.937 1.734-3.924 5.806-3.924 3.674 0 3.977 3.504 3.977 5.684 0 9.188-3.357 13.015-10.085 18.392m37.165 22.526c-5.09 0-8.05 3.197-8.558 3.826l.413-33.182c0-.824-.604-1.438-1.431-1.438h-1.21c-.826 0-1.431.614-1.431 1.438l.509 62.118c0 .824.605 1.437 1.432 1.437.19 0 .604-.097.81-.193 8.75-4.457 17.913-12.918 17.913-23.575 0-5.361-2.434-10.431-8.447-10.431m-8.86 29.145.302-20.151c.206-.937 1.734-3.924 5.806-3.924 3.675 0 3.977 3.504 3.977 5.684 0 9.188-3.357 13.014-10.085 18.391m37.155-67.899c-5.091 0-8.05 3.197-8.559 3.827l.414-33.183c0-.824-.605-1.437-1.432-1.437h-1.209c-.827 0-1.431.613-1.431 1.437l.509 62.119c0 .823.604 1.437 1.431 1.437.191 0 .605-.098.812-.194 8.749-4.457 17.911-12.918 17.911-23.575 0-5.361-2.434-10.431-8.446-10.431m-8.861 29.146.302-20.152c.207-.937 1.734-3.924 5.807-3.924 3.674 0 3.976 3.504 3.976 5.684 0 9.188-3.356 13.015-10.085 18.392" style="stroke-width:1.02572"/><path class="StaffLines" fill="none" stroke="#000" stroke-width="2.73" stroke-linejoin="bevel" transform="matrix(.07113 0 0 1.04176 -23.937 -613.193)" d="M336.598 634.198H2847.4m-2510.802 24.8H2847.4m-2510.802 24.8H2847.4m-2510.802 24.8H2847.4m-2510.802 24.8H2847.4m-2510.802-99.2H2847.4m-2510.802 24.8H2847.4m-2510.802 24.8H2847.4m-2510.802 24.8H2847.4m-2510.802 24.8H2847.4"/></svg>
