<svg width="56.27" height="214.34" viewBox="0 0 56.27 214.34" version="1.2" xmlns="http://www.w3.org/2000/svg"><path class="KeySig" d="M31.045 83.68c-5.09 0-8.049 3.198-8.558 3.827l.414-33.183c0-.823-.605-1.437-1.432-1.437h-1.21c-.826 0-1.43.614-1.43 1.437l.508 62.12c0 .823.605 1.437 1.432 1.437.19 0 .605-.097.811-.194 8.75-4.457 17.912-12.918 17.912-23.575 0-5.361-2.434-10.432-8.447-10.432m-8.86 29.146.302-20.152c.207-.936 1.734-3.923 5.806-3.923 3.675 0 3.977 3.504 3.977 5.684 0 9.187-3.357 13.014-10.085 18.391" style="stroke-width:1.02572"/><path class="StaffLines" d="M336.598 634.198H2847.4m-2510.802 24.8H2847.4m-2510.802 24.8H2847.4m-2510.802 24.8H2847.4m-2510.802 24.8H2847.4m-2510.802-99.2H2847.4m-2510.802 24.8H2847.4m-2510.802 24.8H2847.4m-2510.802 24.8H2847.4m-2510.802 24.8H2847.4" transform="matrix(.02242 0 0 1.04176 -7.553 -613.194)" fill="none" stroke="#000" stroke-width="2.73" stroke-linejoin="bevel"/></svg>
