<svg width="34.629" height="48.422" viewBox="0 0 34.629 48.422" version="1.2" xmlns="http://www.w3.org/2000/svg"><path class="TimeSig" d="M25.499 22.63c4.96-1.891 8.432-5.068 8.432-10.524 0-.884-.294-12.106-17.36-12.106S.001 12.106.001 12.106h.093l-.093.201c0 3.565 2.883 6.355 6.448 6.355s6.356-2.79 6.356-6.355c0-2.883-2.186-5.657-4.96-6.246.092-.109.185-.202.294-.295 1.38-.992 3.27-1.488 5.162-1.488 4.154 0 8.618 2.48 8.618 7.828 0 6.246-4.65 7.145-5.844 7.347-1.194.201-6.742.589-7.936.589s-1.287 1.395-1.287 1.395v1.984s.186 1.085 1.287 1.193c1.69.093 3.968.093 7.146.589 4.355.589 6.634 3.565 6.634 10.51 0 6.649-4.464 8.431-8.618 8.431-2.79 0-5.364-.79-6.449-1.581 3.271-.201 5.953-3.069 5.953-6.355 0-3.565-2.79-6.448-6.356-6.448a6.443 6.443 0 0 0-6.448 6.448c0 8.138 7.44 12.214 14.788 12.214 9.516 0 19.84-3.286 19.84-14.09 0-7.238-4.96-10.322-9.332-11.702z" style="stroke-width:.992"/></svg>
