<svg width="42.454" height="49.306" viewBox="0 0 42.454 49.306" version="1.2" xmlns="http://www.w3.org/2000/svg"><path class="TimeSig" d="M19.236 37.309v7.331h-8.231c-.697 0-1.395.605-1.395 1.395v1.891c0 .79.698 1.38 1.395 1.38H41.06c.806 0 1.394-.59 1.394-1.38v-1.891c0-.79-.588-1.395-1.394-1.395h-8.82v-7.33h8.82c.806 0 1.394-.698 1.394-1.488V33.93c0-.698-.588-1.38-1.394-1.38h-8.82V16.771c0-.589-.294-1.085-.79-1.286l-1.194-.605c-.202-.093-.496-.186-.698-.186-.294.093-.697.186-.898.388l-9.022 8.23c-.294.31-.402.698-.402 1.1v8.138H7.828S18.848 20.646 30.55 4.96c.404-.496.496-.992.496-1.38 0-.495-.201-.898-.294-.991L28.566.403A1.5 1.5 0 0 0 27.574 0H12.896c-.806 0-1.302.605-1.395 1.194 0 0-.496 7.347-3.069 15.376C5.844 24.614 2.868 29.574.295 33.232c0 0-.295.496-.295 1.1 0 .202 0 .388.093.59.403.697.992 1.782.992 1.782s.202.605 1.085.605z" style="stroke-width:.992"/></svg>
