<svg width="35.914" height="48.407" viewBox="0 0 35.914 48.407" version="1.2" xmlns="http://www.w3.org/2000/svg"><path class="TimeSig" d="M32.442 28.179c-.79 2.17-2.775 9.316-7.642 9.316-6.448 0-7.843-3.968-13.19-3.968-.79 0-1.597.108-2.589.294 0 0 2.48-3.766 13.005-7.037 10.509-3.27 13.19-8.432 13.19-14.384 0-4.17-1.875-12.4-16.864-12.4C3.379 0 .589 9.021.589 13.593c0 4.061 3.379 7.332 7.44 7.332a7.32 7.32 0 0 0 7.347-7.332c0-2.774-1.984-5.858-4.557-6.85-.31-.094-.697-.59-.697-1.086 0-.604.496-1.286 2.278-1.782.496-.202 1.891-.496 3.38-.496 5.641 0 6.742 3.472 6.742 8.525 0 11.61-13.795 14.09-19.546 22.723 0 0-2.976 4.154-2.976 8.82 0 4.665 2.387 4.96 3.565 4.96 1.597 0 3.286-1.287 3.286-3.07 0-.402-.108-.79-.31-1.286-.589-1.395-.79-2.48-.79-3.286 0-.294 0-.589.108-.884.093-.604.884-1.596 3.27-1.596 2.868 0 3.969 3.379 5.751 5.952 1.783 2.588 4.557 4.17 7.735 4.17s7.44-2.279 9.238-5.952c1.782-3.674 4.06-11.114 4.06-13.78 0-1.302-.79-1.891-1.689-1.891-.697 0-1.38.403-1.782 1.395" style="stroke-width:.992"/></svg>
