<svg width="36.905" height="48.515" viewBox="0 0 36.905 48.515" version="1.2" xmlns="http://www.w3.org/2000/svg"><path class="TimeSig" d="M13.888 28.97c6.045 0 8.23-1.783 9.626-3.271.294 2.077.496 3.658.496 5.255 0 5.657-1.984 12.989-8.928 12.989-2.48 0-3.968-.791-4.96-1.876 2.077-.899 3.766-3.58 3.766-5.859 0-3.565-2.774-6.355-6.355-6.355-3.565 0-6.448 2.79-6.448 6.355v.295c0 .898.202 2.386.605 3.177 1.286 3.565 5.456 8.835 15.376 8.835 8.928 0 15.376-8.54 17.36-13.098.992-2.386 2.48-7.238 2.48-12.802 0-6.045-1.69-12.896-7.533-18.058C23.607.201 19.933 0 16.46 0S.001 4.061.001 15.578C0 25.296 7.64 28.97 13.887 28.97m3.675-24.91c3.27 0 5.952 4.572 5.952 10.122 0 5.564-2.682 10.028-5.952 10.028s-6.06-4.464-6.06-10.028c0-5.55 2.79-10.122 6.06-10.122" style="stroke-width:.992"/></svg>
