<svg width="42" height="51" viewBox="0 0 42 51" version="1.2" xmlns="http://www.w3.org/2000/svg"><path class="TimeSig" d="M28.293 45.146V2.49c0-.697-.496-1.193-1.194-1.193h-9.827c-.201 0-.387.093-.589.201-.108.093-.294.295-.403.388L5.167 21.136c-.093.202-.093.404-.093.59 0 .403.294.806.589.992l1.89 1.1c.202.093.404.202.59.202.403 0 .806-.31.992-.605l7.052-12.105v33.836H8.64c-.682 0-1.178.496-1.178 1.194v2.17c0 .697.496 1.193 1.178 1.193h27.187c.697 0 1.1-.496 1.1-1.193v-2.17c0-.698-.403-1.194-1.1-1.194z" style="stroke-width:.992"/></svg>
