<svg width="34.425" height="48.608" viewBox="0 0 34.425 48.608" version="1.2" xmlns="http://www.w3.org/2000/svg"><path class="TimeSig" d="M1.193 2.775s.496 4.758.496 9.92c0 4.464-.201 8.928-.496 13.392v.294c0 .496.093 1.194.698 1.287.883.201 2.976.697 3.472.79.186 0 .294.109.496.109.387 0 .79-.202.992-.79.496-1.303 1.581-6.449 7.828-6.449 7.052 0 8.338 6.045 8.338 10.804 0 5.859-1.89 12.4-8.928 12.4-2.278 0-3.58-.295-4.169-.698-.295-.093-.496-.387-.496-.589 0-.294.093-.496.403-.697.884-.59 3.968-1.69 3.968-6.541 0-4.867-3.379-6.743-7.254-6.743C2.681 29.264 0 32.83 0 36.208c0 8.727 8.23 12.4 15.872 12.4 10.121 0 18.553-6.06 18.553-16.678 0-10.509-7.346-16.058-17.266-16.058-3.271 0-6.743.79-9.626 2.775-.093.093-.295.093-.388.093a.676.676 0 0 1-.697-.698v-6.246c0-.59.496-1.085 1.085-1.085h.108c1.488.093 4.759.496 8.231.496 7.145 0 12.509-1.488 15.283-8.835.093-.295.202-.698.202-.992 0-.79-.496-1.38-1.798-1.38-.388 0-.791.093-1.38.186-4.867 1.194-8.634 1.597-12.307 1.597-3.565 0-7.037-.403-11.315-.992 0 0-.496-.109-1.178-.109-1.488 0-2.186.496-2.186 2.093" style="stroke-width:.992"/></svg>
