<svg width="42" height="51" viewBox="0 0 42 51" version="1.2" xmlns="http://www.w3.org/2000/svg"><path class="TimeSig" d="M32.912 23.617c3.27-2.48 5.549-5.658 5.549-9.626 0-7.145-7.828-12.989-17.453-12.989S3.539 6.846 3.539 13.992c0 3.967.992 7.532 5.658 10.508-4.464 2.589-6.944 6.262-6.944 11.02 0 8.03 8.432 14.478 18.755 14.478 10.307 0 18.74-6.448 18.74-14.477 0-4.759-1.675-9.223-6.836-11.904m-5.565-2.682c-6.742-2.185-14.182-5.456-14.182-9.92 0-3.875 3.565-5.456 7.843-5.456 6.153 0 10.307 2.883 10.307 7.44 0 4.759-2.17 7.037-3.968 7.936m-6.34 23.514c-6.354 0-11.81-3.472-11.81-9.037 0-6.634 5.161-8.23 5.161-8.23 6.743 2.278 16.368 5.657 16.368 11.113 0 2.682-3.379 6.154-9.718 6.154" style="stroke-width:.992"/></svg>
