<svg width="36.905" height="48.515" viewBox="0 0 36.905 48.515" version="1.2" xmlns="http://www.w3.org/2000/svg"><path class="TimeSig" d="M23.017 19.545c-6.06 0-8.23 1.783-9.625 3.271-.295-2.077-.496-3.674-.496-5.255 0-5.657 1.984-13.004 8.928-13.004 2.48 0 3.968.806 4.96 1.891-2.077.899-3.767 3.565-3.767 5.859 0 3.565 2.775 6.34 6.356 6.34 3.564 0 6.448-2.775 6.448-6.34v-.31c0-.884-.202-2.372-.605-3.162C33.929 5.255 29.76 0 19.84 0 10.912 0 4.464 8.525 2.48 13.097 1.488 15.47 0 20.336 0 25.885c0 6.06 1.69 12.896 7.533 18.058 5.766 4.37 9.424 4.572 12.896 4.572 3.488 0 16.476-4.076 16.476-15.577 0-9.719-7.641-13.393-13.888-13.393m-3.673 24.8c-3.27 0-5.952-4.464-5.952-10.028 0-5.549 2.681-10.106 5.952-10.106s6.06 4.557 6.06 10.106c0 5.564-2.79 10.028-6.06 10.028" style="stroke-width:.992"/></svg>
