<svg width="34.828" height="49.693" viewBox="0 0 34.828 49.693" version="1.2" xmlns="http://www.w3.org/2000/svg"><path class="TimeSig" d="M14.585 37.092c-2.185 3.27-5.068 7.238-5.068 10.912 0 1.1.31 1.69 1.395 1.69 1.581 0 2.573-.404 5.75-.59h1.101c2.774-.108 5.456.59 6.153.59.884 0 2.573-1.086 2.48-1.985v-.294c0-.202-.604-3.27-.604-6.944 0-2.093.201-4.464.79-6.65 1.194-4.665 4.371-13.097 6.557-19.344 1.085-3.069 1.69-8.633 1.69-10.819 0-.883 0-1.38-.109-2.278C34.627.388 34.224 0 33.635 0h-1.783c-.496 0-1.193.295-1.193 1.38 0 .992-.202 7.734-4.17 7.734-4.169 0-5.363-8.432-11.81-8.432-6.154 0-9.92 6.262-10.215 6.851V2.775c0-.605-.496-1.101-1.085-1.101H1.085C.496 1.674 0 2.17 0 2.774v18.353c0 .589.496 1.085 1.085 1.085h2.294c.589 0 1.085-.496 1.085-1.085v-3.178c0-2.278 1.488-5.363 4.96-5.363s3.766 3.782 11.702 3.782c1.984 0 5.658-.403 6.65-1.302-.79 1.488-10.912 18.755-13.19 22.026" style="stroke-width:.992"/></svg>
